<?xml version="1.0" encoding="UTF-8"?>
<svg version="1.1" xmlns="http://www.w3.org/2000/svg" width="1156" height="403">
<path d="M0 0 C1.423125 1.19625 2.84625 2.3925 4.3125 3.625 C4.6425 -0.995 4.9725 -5.615 5.3125 -10.375 C17.1925 -10.375 29.0725 -10.375 41.3125 -10.375 C41.3125 38.795 41.3125 87.965 41.3125 138.625 C29.4325 138.625 17.5525 138.625 5.3125 138.625 C4.9825 134.335 4.6525 130.045 4.3125 125.625 C3.405 126.470625 2.4975 127.31625 1.5625 128.1875 C-11.50899406 139.29039556 -27.61913251 144.62592278 -44.6875 143.625 C-63.66473778 141.87709652 -79.69426802 134.55143395 -92.38085938 120.19775391 C-108.9725447 100.22696974 -112.49731842 75.86614831 -110.6875 50.625 C-109.93972645 44.76904521 -108.49666258 39.23466036 -106.6875 33.625 C-106.254375 32.22314453 -106.254375 32.22314453 -105.8125 30.79296875 C-99.687316 13.42916589 -85.73159695 -0.73966532 -69.5390625 -8.9765625 C-45.97740415 -19.334001 -20.11147567 -15.96507045 0 0 Z M-63.66015625 30.76171875 C-67.68294072 35.65567947 -70.59030632 40.6495788 -72.6875 46.625 C-72.91308594 47.26308594 -73.13867188 47.90117187 -73.37109375 48.55859375 C-77.21743921 62.16669873 -75.42742032 78.21715814 -69.14453125 90.6875 C-63.06469559 100.92722322 -55.40536746 106.59838531 -44.5 110.875 C-33.34791292 113.0688532 -21.94035163 112.01803157 -12.08203125 106.046875 C-9.80418979 104.35280195 -7.73924883 102.58519006 -5.6875 100.625 C-5.12417969 100.09003906 -4.56085938 99.55507812 -3.98046875 99.00390625 C6.29167796 88.15963998 7.90932083 73.8240928 7.625 59.62109375 C7.05569219 47.03701905 1.6459395 34.91630083 -7.55859375 26.2265625 C-25.31551579 12.86814409 -48.54292086 14.38720833 -63.66015625 30.76171875 Z " fill="#333333" transform="translate(431.6875,153.375)"/>
<path d="M0 0 C16.28785342 12.93696691 23.86233355 29.7106498 27 50.0625 C27.79942044 58.25655949 27.75 66.51703674 27.75 74.75 C-7.56 74.75 -42.87 74.75 -79.25 74.75 C-74.43121726 93.65880334 -74.43121726 93.65880334 -61.5625 107.4375 C-51.50292723 113.25553649 -40.20421159 114.53253847 -28.9375 111.625 C-16.45410569 107.25581199 -7.94671602 95.62231542 -1.25 84.75 C8.96704066 89.73910037 18.94595152 94.99012152 28.75 100.75 C26.74791518 107.91703767 22.28339109 113.0272695 17.75 118.75 C17.23050781 119.42675781 16.71101562 120.10351562 16.17578125 120.80078125 C4.62503525 135.19784288 -13.29562392 143.28791981 -31.3125 145.4375 C-51.8495465 147.00222735 -72.50031621 143.94207892 -88.875 130.61328125 C-105.63881544 115.91999659 -114.44456479 97.64252245 -116.06640625 75.38671875 C-117.22539883 52.08251164 -113.34812143 27.73738752 -97.25 9.75 C-96.62996094 9.02683594 -96.00992188 8.30367187 -95.37109375 7.55859375 C-72.20637716 -17.65383259 -27.16263671 -19.53803694 0 0 Z M-68.25 29.75 C-72.0661733 35.01313901 -74.96312215 39.31561073 -76.25 45.75 C-54.14 45.75 -32.03 45.75 -9.25 45.75 C-12.79542198 35.11373406 -16.73305982 27.85781507 -26.6875 22.41796875 C-40.5548704 16.57798985 -57.69024776 18.45352086 -68.25 29.75 Z " fill="#333333" transform="translate(269.25,151.25)"/>
<path d="M0 0 C13.53 0 27.06 0 41 0 C43.0625 4.00125 45.125 8.0025 47.25 12.125 C52.22037296 21.73751921 57.29296269 31.27942887 62.51293945 40.7590332 C66.99078218 48.91774481 71.28613557 57.16722226 75.54907227 65.43994141 C76.05752686 66.42526855 76.56598145 67.4105957 77.08984375 68.42578125 C77.53191162 69.28598877 77.97397949 70.14619629 78.42944336 71.0324707 C80.55874801 75.05574102 82.77820545 79.02723644 85 83 C91.29865387 71.19643852 97.37730724 59.3141864 103.19146729 47.26470947 C105.22977816 43.04145043 107.27944772 38.82370626 109.328125 34.60546875 C109.72915436 33.77921997 110.13018372 32.95297119 110.54336548 32.10168457 C114.03058494 24.92264682 117.55903188 17.76526534 121.125 10.625 C121.86049072 9.14737183 121.86049072 9.14737183 122.61083984 7.63989258 C123.05121582 6.76099365 123.4915918 5.88209473 123.9453125 4.9765625 C124.32187988 4.22455566 124.69844727 3.47254883 125.08642578 2.69775391 C126 1 126 1 127 0 C129.95705321 -0.08868299 132.89065056 -0.11520296 135.84765625 -0.09765625 C137.17729652 -0.09553383 137.17729652 -0.09553383 138.53379822 -0.09336853 C141.37673254 -0.08775215 144.21958931 -0.07519691 147.0625 -0.0625 C148.98502491 -0.05748711 150.90755104 -0.05292384 152.83007812 -0.04882812 C157.55341549 -0.03777741 162.27669458 -0.02050183 167 0 C165.5549731 3.758277 163.89258817 7.34367645 162.09375 10.9453125 C161.51367188 12.10675781 160.93359375 13.26820313 160.3359375 14.46484375 C160.03268555 15.06925293 159.72943359 15.67366211 159.41699219 16.29638672 C158.5276695 18.06982306 157.6426706 19.84542559 156.7578125 21.62109375 C152.88692592 29.35441519 148.90000297 37.02024843 144.85968018 44.66629028 C140.67394842 52.59579996 136.58013051 60.57104907 132.49966431 68.55511475 C130.32405699 72.81154602 128.14453707 77.06597253 125.96484375 81.3203125 C125.53471481 82.15990509 125.10458588 82.99949768 124.66142273 83.86453247 C121.06601582 90.8789312 117.44656265 97.88053848 113.8125 104.875 C108.75199848 114.61536887 103.71234365 124.36620452 98.6875 134.125 C98.33195038 134.81547424 97.97640076 135.50594849 97.6100769 136.21734619 C95.4364933 140.43861903 93.26338241 144.66013509 91.09039307 148.88171387 C82.71590179 165.1506808 74.34088087 181.41940702 65.94219971 197.67590332 C65.04735019 199.40833014 64.15329163 201.14116545 63.25927734 202.87402344 C58.56732608 211.95007996 53.78122663 220.96879415 49 230 C35.47 230 21.94 230 8 230 C17.44768612 211.10462777 17.44768612 211.10462777 21.75 202.875 C22.25966309 201.89893799 22.76932617 200.92287598 23.29443359 199.91723633 C27.13640238 192.58702443 31.08139932 185.31751682 35.06616211 178.06420898 C40.6853803 167.80590036 46.13569465 157.45838917 51.59423828 147.11401367 C51.96166138 146.41854935 52.32908447 145.72308502 52.7076416 145.00654602 C53.43031344 143.63612255 54.15065224 142.26446598 54.86853027 140.89152527 C56.5737309 137.6407454 58.31530889 134.42684257 60.16943359 131.25830078 C60.67545357 130.37671043 60.67545357 130.37671043 61.19169617 129.47731018 C62.10445133 127.89524974 63.03628253 126.32423802 63.96948242 124.75415039 C65.27408887 122.06765058 65.27408887 122.06765058 64.35205078 119.47387695 C63.90587402 118.65749756 63.45969727 117.84111816 63 117 C62.56905029 116.1455127 62.13810059 115.29102539 61.6940918 114.41064453 C61.20078369 113.49395996 60.70747559 112.57727539 60.19921875 111.6328125 C59.64105469 110.59447266 59.08289063 109.55613281 58.5078125 108.48632812 C57.90710938 107.37708984 57.30640625 106.26785156 56.6875 105.125 C56.06230469 103.96677734 55.43710937 102.80855469 54.79296875 101.61523438 C50.26489085 93.24664854 45.60891684 84.95445607 40.8972168 76.68798828 C36.82226027 69.51572003 32.89042265 62.27379588 29 55 C24.48951298 46.57015462 19.9038607 38.19154607 15.1875 29.875 C14.65423096 28.93430664 14.12096191 27.99361328 13.5715332 27.02441406 C11.12327567 22.71438542 8.66266756 18.41181417 6.1875 14.1171875 C5.76186768 13.37355957 5.33623535 12.62993164 4.89770508 11.86376953 C4.11665116 10.49956441 3.33039504 9.13831842 2.5378418 7.78076172 C0.92508961 4.95739018 0 3.31103198 0 0 Z " fill="#FF8500" transform="translate(951,143)"/>
<path d="M0 0 C0.88034912 0.00563965 1.76069824 0.0112793 2.66772461 0.01708984 C16.10072966 0.26646647 28.58314438 4.20885786 38.62890625 13.5078125 C54.88082442 31.60030936 53.56492583 57.28588109 53.4453125 80.0703125 C53.44157142 82.19692856 53.43872964 84.32354638 53.43673706 86.45016479 C53.4291867 91.98363198 53.40961458 97.51699021 53.3873291 103.05041504 C53.3666829 108.72239713 53.35769565 114.39439723 53.34765625 120.06640625 C53.32635851 131.1484925 53.29124904 142.23047004 53.25 153.3125 C41.37 153.3125 29.49 153.3125 17.25 153.3125 C17.23018066 150.49227295 17.21036133 147.6720459 17.18994141 144.76635742 C17.12285012 135.41850945 17.04521381 126.07077009 16.96247292 116.72304821 C16.91265806 111.05896105 16.86632727 105.39489122 16.828125 99.73071289 C16.79108443 94.25819539 16.7446748 88.78582826 16.69193649 83.31344032 C16.67349186 81.23203498 16.65834781 79.15059753 16.64665604 77.0691433 C17.36501989 57.21978415 17.36501989 57.21978415 10.25 39.3125 C1.87273377 32.52606816 -7.4126602 32.43844056 -17.75 33.3125 C-23.93735018 34.59317348 -28.69527537 37.1216399 -32.5078125 42.2265625 C-40.99668931 56.48146885 -40.05744243 74.75037154 -40.1640625 90.8125 C-40.18282735 92.62810086 -40.20240444 94.44369349 -40.2227478 96.25927734 C-40.2735146 100.98054084 -40.31343255 105.70183245 -40.35089111 110.42321777 C-40.3984165 116.11880438 -40.45977068 121.81425767 -40.51873779 127.50973511 C-40.60627167 136.11060125 -40.67651981 144.71145072 -40.75 153.3125 C-52.3 153.3125 -63.85 153.3125 -75.75 153.3125 C-75.75 104.1425 -75.75 54.9725 -75.75 4.3125 C-64.2 4.3125 -52.65 4.3125 -40.75 4.3125 C-40.255 9.7575 -40.255 9.7575 -39.75 15.3125 C-39.08355469 14.79300781 -38.41710937 14.27351562 -37.73046875 13.73828125 C-26.04356642 4.89546424 -14.72593912 -0.09889818 0 0 Z " fill="#333333" transform="translate(702.75,138.6875)"/>
<path d="M0 0 C1.03362671 -0.05184448 1.03362671 -0.05184448 2.08813477 -0.10473633 C10.77279106 -0.17032893 16.43604074 2.62454398 25.4375 5.4375 C25.4375 17.3175 25.4375 29.1975 25.4375 41.4375 C21.25704869 40.60140974 18.52410392 39.64363882 14.75 37.875 C9.15536124 35.49796752 4.47728022 34.42716912 -1.5625 35.4375 C-5.87611527 37.18130192 -7.49823263 39.34179793 -9.5625 43.4375 C-10.09131551 46.02909688 -10.4620998 48.43687641 -10.7109375 51.0546875 C-10.79000336 51.82569794 -10.86906921 52.59670837 -10.95053101 53.39108276 C-12.0310983 65.07868621 -12.0326569 76.83474808 -12.1875 88.5625 C-12.22578309 90.98568952 -12.26484034 93.40886694 -12.3046875 95.83203125 C-12.40095683 101.70044946 -12.48140489 107.56877522 -12.5625 113.4375 C-0.0225 113.4375 12.5175 113.4375 25.4375 113.4375 C25.4375 124.3275 25.4375 135.2175 25.4375 146.4375 C12.8975 146.4375 0.3575 146.4375 -12.5625 146.4375 C-12.5625 184.7175 -12.5625 222.9975 -12.5625 262.4375 C-24.1125 262.4375 -35.6625 262.4375 -47.5625 262.4375 C-47.5625 224.1575 -47.5625 185.8775 -47.5625 146.4375 C-51.5225 146.4375 -55.4825 146.4375 -59.5625 146.4375 C-59.5625 135.5475 -59.5625 124.6575 -59.5625 113.4375 C-55.6025 113.4375 -51.6425 113.4375 -47.5625 113.4375 C-47.56916183 112.60859253 -47.57582367 111.77968506 -47.58268738 110.92565918 C-47.64326288 103.04282174 -47.68870728 95.16006455 -47.71793652 87.2770462 C-47.73346962 83.22609884 -47.75447614 79.17534675 -47.78881836 75.12451172 C-47.82186016 71.20168695 -47.83944537 67.27904775 -47.84713173 63.35609436 C-47.85259613 61.87326645 -47.86326135 60.39044655 -47.87969017 58.90769958 C-48.04596145 43.25201756 -47.07366865 26.23280988 -36.3359375 13.875 C-30.74788825 8.48208898 -24.86112454 5.02242952 -17.5625 2.4375 C-16.881875 2.19257813 -16.20125 1.94765625 -15.5 1.6953125 C-10.4578926 0.25752406 -5.21200968 0.14457801 0 0 Z " fill="#FF8500" transform="translate(916.5625,29.5625)"/>
<path d="M0 0 C11.88 0 23.76 0 36 0 C36 66.66 36 133.32 36 202 C58.77 202 81.54 202 105 202 C105 213.22 105 224.44 105 236 C70.35 236 35.7 236 0 236 C0 158.12 0 80.24 0 0 Z " fill="#333333" transform="translate(33,56)"/>
<path d="M0 0 C-0.62833318 4.33443398 -2.18627768 7.71887218 -4.16015625 11.61328125 C-4.46948593 12.22769577 -4.77881561 12.84211029 -5.09751892 13.47514343 C-6.08021581 15.4238356 -7.07120274 17.36817113 -8.0625 19.3125 C-8.73297503 20.6383923 -9.40290286 21.96456146 -10.07226562 23.29101562 C-11.70852218 26.53057251 -13.35223725 29.76627749 -15 33 C-18.70656013 31.78493243 -22.25386089 30.4684205 -25.8125 28.875 C-32.14802147 26.33889171 -37.6093185 26.03246383 -44.125 28.125 C-50.34703115 30.78981414 -55.41803017 35.05303121 -58.09086609 41.35876465 C-62.41510788 53.9216447 -62.46675704 67.03812701 -62.51171875 80.15625 C-62.52861047 82.03911473 -62.54676654 83.9219685 -62.56611633 85.80480957 C-62.61313548 90.70363941 -62.64325323 95.6024248 -62.66955566 100.50140381 C-62.69960709 105.5231606 -62.74605132 110.54476476 -62.79101562 115.56640625 C-62.87650004 125.37754081 -62.94256622 135.18866111 -63 145 C-74.55 145 -86.1 145 -98 145 C-98 95.83 -98 46.66 -98 -4 C-86.45 -4 -74.9 -4 -63 -4 C-62.505 1.445 -62.505 1.445 -62 7 C-61.39414062 6.40832031 -60.78828125 5.81664062 -60.1640625 5.20703125 C-42.28382454 -11.65540855 -21.06239039 -11.56366531 0 0 Z " fill="#333333" transform="translate(609,147)"/>
<path d="M0 0 C11.55 0 23.1 0 35 0 C35 49.17 35 98.34 35 149 C23.45 149 11.9 149 0 149 C0 99.83 0 50.66 0 0 Z " fill="#FF8500" transform="translate(793,143)"/>
<path d="M0 0 C6.46978878 6.61682943 7.19379793 12.28195604 7.18359375 21.4453125 C6.44500601 27.18101186 3.68941117 31.65423266 -0.25 35.8125 C-6.60576938 40.23777868 -12.61711078 41.65787617 -20.25 40.8125 C-27.39407807 38.94001209 -32.16297437 34.89209215 -36.25 28.8125 C-39.18419642 22.80672003 -39.35027867 15.9350631 -37.6328125 9.5 C-34.80319012 3.08952807 -29.53824133 -1.57836063 -23.3125 -4.625 C-14.39176718 -6.26350195 -7.5379348 -5.07360996 0 0 Z " fill="#FF8500" transform="translate(826.25,64.1875)"/>
</svg>
